PathFileType  4	(X/Y/Z) C:\Users\antoi\Documents\MyRepositories\mobilecap\ResultsAnalysis
DataRate	CameraRate	NumFrames	NumMarkers	Units	OrigDataRate	OrigDataStartFrame	OrigNumFrames
100.0	100.0	5	51	mm	100.0	1	275
Frame#	Time	r_knee			r_shank_antsup			r_ankle			r_calc			r_5meta			r_toe			L_knee			L_shank_antsup			L_ankle			L_calc			L_5meta			L_toe			r_sh2			r_sh3			r_sh4			L_sh2			L_sh3			r_thigh1			r_thigh2			r_thigh3			r_thigh4			r_thigh5			L_thigh1			L_thigh2			L_thigh3			L_thigh4			r.ASIS			r.PSIS			L.ASIS			L.PSIS			C7			R_Shoulder			L_Shoulder			R_Sternum			L_Sternum			R_humerus			R_elbow_med			R_elbow_lat			R_forearm			R_wrist_radius			R_wrist_ulna			L_humerus			L_elbow_med			L_elbow_lat			L_forearm			L_wrist_radius			L_wrist_ulna			R_HJC			L_HJC			R_HJC_reg			L_HJC_reg			
		X1	Y1	Z1	X2	Y2	Z2	X3	Y3	Z3	X4	Y4	Z4	X5	Y5	Z5	X6	Y6	Z6	X7	Y7	Z7	X8	Y8	Z8	X9	Y9	Z9	X10	Y10	Z10	X11	Y11	Z11	X12	Y12	Z12	X13	Y13	Z13	X14	Y14	Z14	X15	Y15	Z15	X16	Y16	Z16	X17	Y17	Z17	X18	Y18	Z18	X19	Y19	Z19	X20	Y20	Z20	X21	Y21	Z21	X22	Y22	Z22	X23	Y23	Z23	X24	Y24	Z24	X25	Y25	Z25	X26	Y26	Z26	X27	Y27	Z27	X28	Y28	Z28	X29	Y29	Z29	X30	Y30	Z30	X31	Y31	Z31	X32	Y32	Z32	X33	Y33	Z33	X34	Y34	Z34	X35	Y35	Z35	X36	Y36	Z36	X37	Y37	Z37	X38	Y38	Z38	X39	Y39	Z39	X40	Y40	Z40	X41	Y41	Z41	X42	Y42	Z42	X43	Y43	Z43	X44	Y44	Z44	X45	Y45	Z45	X46	Y46	Z46	X47	Y47	Z47	X48	Y48	Z48	X49	Y49	Z49	X50	Y50	Z50	X51	Y51	Z51	

1	0.00000000	-1209.39874	780.07945	-415.48427	-1178.40693	670.86569	-433.30378	-1250.55299	395.95080	-455.24254	-1297.29183	358.64750	-505.11794	-1134.69885	348.43431	-420.12690	-1099.66224	366.90380	-464.48020	-1204.84106	782.25894	-751.43125	-1170.15704	683.49972	-708.37811	-1249.93420	397.00825	-732.72950	-1292.95007	365.91217	-696.34752	-1127.67346	346.83698	-744.58087	-1090.80346	367.21050	-690.73938	-1188.94906	561.50249	-444.51607	-1233.05782	670.17979	-379.44408	-1259.68041	561.85352	-403.03827	-1220.72626	705.66419	-779.07536	-1232.77913	584.13709	-788.48693	-1113.69371	1079.25757	-430.09917	-1112.74303	970.27355	-423.87972	-1157.54206	946.15672	-379.71768	-1216.16062	1077.57948	-385.35875	-1211.63830	963.16153	-377.81129	-1117.45279	1068.56095	-751.70116	-1115.67387	931.38066	-752.77241	-1224.95386	1072.86866	-794.63800	-1221.89021	931.47311	-783.80844	-1093.71308	1238.85325	-460.84937	-1269.95675	1305.20073	-533.35228	-1084.90264	1238.96374	-707.57174	-1269.40340	1306.30635	-650.64879	-1243.60557	1755.39812	-586.45303	-1194.58958	1714.62548	-432.02027	-1188.30041	1723.26175	-743.34249	-1125.93760	1699.76405	-564.62629	-1125.33854	1697.79314	-607.14706	-1173.06299	1585.80188	-368.10490	-1241.94071	1394.23407	-421.34287	-1218.37430	1395.17730	-348.89563	-1159.34430	1281.85011	-337.86475	-1120.40851	1184.20114	-347.50799	-1149.82182	1175.92212	-325.21213	-1161.53961	1572.02748	-806.15401	-1227.33614	1384.37458	-751.44931	-1208.80248	1390.74519	-824.99981	-1152.28156	1307.58888	-840.28556	-1104.36674	1184.24459	-823.88833	-1129.40946	1176.52916	-844.39376	-1191.95810	1179.59073	-490.40389	-1182.14748	1175.96488	-679.49263	-1171.92401	1177.99495	-496.39924	-1171.15538	1179.53072	-659.33076	
2	0.01000000	-1209.31335	780.07993	-415.46742	-1178.27897	670.76385	-433.28507	-1250.23047	396.14129	-455.07896	-1297.22629	358.58713	-504.98461	-1134.73777	348.38990	-420.11437	-1099.63810	366.92201	-464.47185	-1204.71821	782.27542	-751.40253	-1169.95452	683.46769	-708.37608	-1249.93071	396.98794	-732.70418	-1292.97094	365.90617	-696.33962	-1127.68480	346.83943	-744.59253	-1090.82938	367.22245	-690.76945	-1188.83682	561.51232	-444.58341	-1232.93867	670.33511	-379.14799	-1259.69053	561.90417	-403.04782	-1220.52053	705.58716	-779.13948	-1232.74157	584.16642	-788.46211	-1113.56626	1079.20902	-430.04220	-1112.59213	970.33385	-423.84507	-1157.52564	946.10539	-379.62617	-1216.09297	1077.52651	-385.28928	-1211.69013	963.16245	-377.86250	-1117.81779	1068.75948	-751.70309	-1115.84760	931.58282	-752.71329	-1224.97781	1072.88957	-794.68697	-1221.84181	931.51342	-783.82676	-1093.59743	1238.81823	-460.81433	-1269.83347	1305.23934	-533.31970	-1084.81870	1238.86425	-707.52376	-1269.28981	1306.37089	-650.56953	-1242.68193	1755.49062	-585.89825	-1193.68269	1714.76651	-431.78208	-1187.50737	1723.39078	-743.43388	-1125.16346	1699.65703	-564.32786	-1124.52378	1697.78052	-606.95299	-1172.37709	1585.90088	-367.93141	-1241.57139	1394.57427	-421.10435	-1218.11088	1395.48049	-348.62218	-1159.40189	1281.96043	-337.44663	-1120.76362	1184.16061	-346.92962	-1150.09971	1175.97281	-324.76683	-1160.99236	1572.13871	-806.10944	-1226.98686	1384.74554	-751.72446	-1208.70942	1391.09180	-825.05665	-1152.38075	1307.88686	-840.74773	-1104.80505	1184.26698	-824.53021	-1130.00321	1176.49082	-844.71835	-1191.89414	1179.60537	-490.33962	-1182.11020	1175.94499	-679.42907	-1171.83937	1177.93926	-496.36922	-1171.08393	1179.51158	-659.29113	
3	0.02000000	-1209.21620	780.07645	-415.45721	-1178.13352	670.74171	-433.28030	-1250.08210	396.24760	-454.91714	-1297.25620	358.59976	-505.04593	-1134.75476	348.35817	-420.08484	-1099.63516	366.91678	-464.43026	-1204.59632	782.28159	-751.36660	-1169.77885	683.39450	-708.29787	-1249.92197	397.04558	-732.74182	-1292.97739	365.89991	-696.30544	-1127.68765	346.84725	-744.59334	-1090.81716	367.23582	-690.75084	-1188.74785	561.47130	-444.58185	-1232.83473	670.36865	-379.06805	-1259.62116	561.73439	-403.08535	-1220.33560	705.57586	-779.18130	-1232.68864	584.20900	-788.49123	-1113.53243	1079.14607	-429.86934	-1112.51986	970.44733	-423.61453	-1157.49666	946.07568	-379.61005	-1216.02736	1077.53960	-385.20663	-1211.61591	963.14345	-377.80536	-1117.45830	1068.68893	-751.62633	-1115.62239	931.50761	-752.71821	-1224.99273	1072.91332	-794.69941	-1221.76095	931.57598	-783.88284	-1093.48363	1238.73699	-460.83723	-1269.71273	1305.27890	-533.28257	-1084.75850	1238.79083	-707.51234	-1269.14935	1306.44184	-650.47706	-1241.84924	1755.50644	-585.65181	-1192.79388	1714.89406	-431.56497	-1186.74108	1723.59132	-743.27441	-1124.37783	1699.62671	-564.11067	-1123.74024	1697.69004	-606.86869	-1171.59824	1586.03044	-367.75659	-1241.45346	1394.82871	-420.76451	-1217.84851	1395.78319	-348.33050	-1159.44634	1282.08071	-336.93164	-1121.11687	1184.09909	-346.45880	-1150.39511	1175.98374	-324.23491	-1160.42943	1572.28124	-806.05651	-1226.11178	1385.34561	-751.68263	-1208.60004	1391.49211	-825.21500	-1152.49587	1308.02882	-840.90276	-1105.30403	1184.28638	-825.16893	-1130.63447	1176.56278	-845.00276	-1191.82960	1179.59059	-490.31932	-1182.09291	1175.94796	-679.41155	-1171.79386	1177.88934	-496.41722	-1171.01074	1179.50581	-659.31469	
4	0.03000000	-1209.09475	780.04813	-415.49276	-1177.99734	670.75603	-433.28614	-1250.13957	396.27972	-454.79214	-1297.28701	358.64144	-505.13122	-1134.75637	348.36844	-420.04574	-1099.64985	366.90102	-464.39634	-1204.46644	782.29371	-751.34335	-1169.57571	683.31651	-708.14398	-1249.92217	397.13994	-732.78946	-1292.98174	365.90193	-696.27601	-1127.68056	346.86224	-744.58354	-1090.80407	367.24837	-690.70469	-1188.65636	561.37658	-444.56887	-1232.67321	670.30979	-379.18039	-1259.55150	561.70349	-403.05655	-1220.17084	705.57569	-779.13242	-1232.61235	584.21392	-788.45922	-1113.55062	1079.10066	-429.69069	-1112.48465	970.50759	-423.46267	-1157.43678	946.07539	-379.60350	-1215.98709	1077.57523	-385.13529	-1211.47489	963.10092	-377.74063	-1116.92526	1068.55008	-751.46694	-1115.29871	931.36796	-752.75316	-1224.99235	1072.92574	-794.67723	-1221.67507	931.61953	-783.92016	-1093.35870	1238.67186	-460.81939	-1269.59133	1305.32411	-533.24646	-1084.70973	1238.73115	-707.54975	-1269.00214	1306.49474	-650.34883	-1240.99233	1755.59044	-585.69699	-1191.89649	1714.98936	-431.42129	-1185.92134	1723.80771	-742.97830	-1123.57971	1699.62280	-564.02271	-1122.89933	1697.53443	-606.83766	-1170.77210	1586.18654	-367.55033	-1241.41140	1394.92765	-420.39346	-1217.55986	1396.05403	-348.04224	-1159.48290	1282.15499	-336.47171	-1121.47650	1184.19873	-345.84846	-1150.79499	1176.16025	-323.40704	-1159.82933	1572.45851	-806.00078	-1225.33596	1385.89547	-751.54357	-1208.45162	1391.89348	-825.22857	-1152.64628	1308.09429	-840.90006	-1105.92254	1184.28179	-825.79493	-1131.29313	1176.66825	-845.26013	-1191.74467	1179.58273	-490.28755	-1182.07410	1175.95161	-679.38340	-1171.75951	1177.84494	-496.43252	-1170.93981	1179.47370	-659.36449	
5	0.04000000	-1208.93855	779.99578	-415.59893	-1177.86816	670.74130	-433.28187	-1250.24160	396.29904	-454.78783	-1297.25701	358.63695	-505.08074	-1134.75961	348.39587	-420.05914	-1099.66254	366.90384	-464.40536	-1204.30236	782.33660	-751.35791	-1169.32776	683.26887	-708.03160	-1249.93378	397.18617	-732.78179	-1292.99787	365.91302	-696.27803	-1127.67694	346.88164	-744.57670	-1090.81903	367.25661	-690.67597	-1188.55941	561.31352	-444.56800	-1232.43128	670.26351	-379.29674	-1259.70520	562.46898	-402.85970	-1220.00952	705.53380	-779.01458	-1232.48483	584.14757	-788.18339	-1113.51311	1079.10725	-429.61180	-1112.40299	970.50567	-423.51372	-1157.36110	946.11160	-379.55049	-1215.95618	1077.58248	-385.06561	-1211.37665	963.01598	-377.76413	-1116.80052	1068.55263	-751.38452	-1115.19394	931.38446	-752.76273	-1224.97762	1072.92474	-794.64850	-1221.60763	931.62670	-783.90633	-1093.19867	1238.65637	-460.69489	-1269.42496	1305.39269	-533.17139	-1084.63749	1238.65986	-707.57473	-1268.88087	1306.54331	-650.18558	-1240.02497	1755.78822	-585.75276	-1190.97960	1715.07803	-431.34356	-1185.02306	1723.99016	-742.82192	-1122.73921	1699.57320	-564.05162	-1122.01301	1697.38444	-606.81700	-1169.95665	1586.36886	-367.36367	-1241.01019	1395.09661	-420.09776	-1217.22034	1396.33652	-347.72807	-1159.53171	1282.18841	-336.16452	-1121.87894	1184.47961	-344.97207	-1151.30722	1176.52480	-322.46948	-1159.19911	1572.67451	-806.00977	-1225.27187	1386.06957	-751.39380	-1208.25837	1392.25410	-824.89153	-1152.86462	1308.29000	-841.08963	-1106.69552	1184.19440	-826.27795	-1132.05142	1176.72815	-845.64131	-1191.62599	1179.61556	-490.18059	-1182.03604	1175.94384	-679.27976	-1171.65903	1177.81888	-496.29321	-1170.90097	1179.42193	-659.32213	
